<mxfile host="app.diagrams.net" modified="2021-12-22T13:12:24.389Z" agent="5.0 (Macintosh; Intel Mac OS X 10_15_7) AppleWebKit/537.36 (KHTML, like Gecko) Chrome/91.0.4472.114 Safari/537.36" etag="0HLUoydmdH9kjAii46gf" version="15.9.6" type="github">
  <diagram id="czafQkG2z_FzEas7QaTP" name="Page-1">
    <mxGraphModel dx="1113" dy="655" grid="1" gridSize="10" guides="1" tooltips="1" connect="1" arrows="1" fold="1" page="1" pageScale="1" pageWidth="1654" pageHeight="2336" math="0" shadow="0">
      <root>
        <mxCell id="0" />
        <mxCell id="1" parent="0" />
        <mxCell id="pokAoe_vqRN141_JP_Yj-13" value="" style="rounded=0;whiteSpace=wrap;html=1;fontSize=14;dashed=1;" vertex="1" parent="1">
          <mxGeometry x="160" y="190" width="860" height="240" as="geometry" />
        </mxCell>
        <mxCell id="pokAoe_vqRN141_JP_Yj-17" style="edgeStyle=orthogonalEdgeStyle;rounded=0;orthogonalLoop=1;jettySize=auto;html=1;entryX=1;entryY=0.5;entryDx=0;entryDy=0;fontSize=20;" edge="1" parent="1" source="pokAoe_vqRN141_JP_Yj-1" target="pokAoe_vqRN141_JP_Yj-15">
          <mxGeometry relative="1" as="geometry" />
        </mxCell>
        <mxCell id="pokAoe_vqRN141_JP_Yj-1" value="&lt;font style=&quot;font-size: 14px&quot;&gt;视频 + 封面（横版 + 竖版）&amp;nbsp;&lt;/font&gt;" style="rounded=0;whiteSpace=wrap;html=1;" vertex="1" parent="1">
          <mxGeometry x="440" y="330" width="310" height="50" as="geometry" />
        </mxCell>
        <mxCell id="pokAoe_vqRN141_JP_Yj-7" style="edgeStyle=orthogonalEdgeStyle;rounded=0;orthogonalLoop=1;jettySize=auto;html=1;fontSize=14;" edge="1" parent="1" source="pokAoe_vqRN141_JP_Yj-2" target="pokAoe_vqRN141_JP_Yj-1">
          <mxGeometry relative="1" as="geometry" />
        </mxCell>
        <mxCell id="pokAoe_vqRN141_JP_Yj-2" value="&lt;font style=&quot;font-size: 14px&quot;&gt;B端：作者上传视频 + 封面&lt;/font&gt;" style="rounded=0;whiteSpace=wrap;html=1;" vertex="1" parent="1">
          <mxGeometry x="320" y="200" width="170" height="50" as="geometry" />
        </mxCell>
        <mxCell id="pokAoe_vqRN141_JP_Yj-8" style="edgeStyle=orthogonalEdgeStyle;rounded=0;orthogonalLoop=1;jettySize=auto;html=1;entryX=0.5;entryY=0;entryDx=0;entryDy=0;fontSize=14;" edge="1" parent="1" source="pokAoe_vqRN141_JP_Yj-3" target="pokAoe_vqRN141_JP_Yj-1">
          <mxGeometry relative="1" as="geometry" />
        </mxCell>
        <mxCell id="pokAoe_vqRN141_JP_Yj-3" value="&lt;font style=&quot;font-size: 14px&quot;&gt;B端封面推荐（横版+竖版）&lt;/font&gt;" style="rounded=0;whiteSpace=wrap;html=1;" vertex="1" parent="1">
          <mxGeometry x="650" y="200" width="203" height="50" as="geometry" />
        </mxCell>
        <mxCell id="pokAoe_vqRN141_JP_Yj-4" value="&lt;span style=&quot;font-size: 14px&quot;&gt;审核平台&lt;/span&gt;" style="rounded=0;whiteSpace=wrap;html=1;" vertex="1" parent="1">
          <mxGeometry x="890" y="330" width="120" height="50" as="geometry" />
        </mxCell>
        <mxCell id="pokAoe_vqRN141_JP_Yj-5" value="" style="endArrow=classic;startArrow=classic;html=1;rounded=0;fontSize=14;entryX=0;entryY=0.5;entryDx=0;entryDy=0;exitX=1;exitY=0.5;exitDx=0;exitDy=0;" edge="1" parent="1" source="pokAoe_vqRN141_JP_Yj-1" target="pokAoe_vqRN141_JP_Yj-4">
          <mxGeometry width="50" height="50" relative="1" as="geometry">
            <mxPoint x="777" y="360" as="sourcePoint" />
            <mxPoint x="827" y="310" as="targetPoint" />
          </mxGeometry>
        </mxCell>
        <mxCell id="pokAoe_vqRN141_JP_Yj-6" value="人工干预封面" style="text;html=1;strokeColor=none;fillColor=none;align=center;verticalAlign=middle;whiteSpace=wrap;rounded=0;fontSize=14;" vertex="1" parent="1">
          <mxGeometry x="782" y="330" width="90" height="30" as="geometry" />
        </mxCell>
        <mxCell id="pokAoe_vqRN141_JP_Yj-9" value="作者可以选择用不用我们推荐的" style="text;html=1;strokeColor=none;fillColor=none;align=center;verticalAlign=middle;whiteSpace=wrap;rounded=0;fontSize=14;" vertex="1" parent="1">
          <mxGeometry x="490" y="260" width="220" height="30" as="geometry" />
        </mxCell>
        <mxCell id="pokAoe_vqRN141_JP_Yj-10" value="" style="shape=flexArrow;endArrow=classic;html=1;rounded=0;fontSize=14;exitX=1;exitY=0;exitDx=0;exitDy=0;entryX=-0.021;entryY=0.088;entryDx=0;entryDy=0;entryPerimeter=0;" edge="1" parent="1" source="pokAoe_vqRN141_JP_Yj-3" target="pokAoe_vqRN141_JP_Yj-11">
          <mxGeometry width="50" height="50" relative="1" as="geometry">
            <mxPoint x="860" y="200" as="sourcePoint" />
            <mxPoint x="940" y="190" as="targetPoint" />
          </mxGeometry>
        </mxCell>
        <mxCell id="pokAoe_vqRN141_JP_Yj-11" value="功能说明" style="swimlane;fontSize=14;" vertex="1" parent="1">
          <mxGeometry x="950" y="30" width="390" height="150" as="geometry">
            <mxRectangle x="950" y="50" width="150" height="23" as="alternateBounds" />
          </mxGeometry>
        </mxCell>
        <mxCell id="pokAoe_vqRN141_JP_Yj-12" value="功能：从视频中选取封面&lt;br&gt;输出：封面 + 提示信息（是否低质等）&lt;br&gt;（&lt;font color=&quot;#ff9933&quot;&gt;说明：短视频只自动选竖版封面，横版是作者自己传的；&lt;br&gt;&amp;nbsp; &amp;nbsp; &amp;nbsp; &amp;nbsp; &amp;nbsp; &amp;nbsp; &amp;nbsp; &amp;nbsp;小视频只会自动选横版封面，竖版是作者自己传的&lt;/font&gt;）&lt;br&gt;算子：视频选封面&amp;nbsp;&lt;br&gt;代码负责：王靖明&lt;br&gt;架构：是B端的人" style="text;html=1;align=left;verticalAlign=middle;resizable=0;points=[];autosize=1;strokeColor=none;fillColor=none;fontSize=14;" vertex="1" parent="pokAoe_vqRN141_JP_Yj-11">
          <mxGeometry y="30" width="400" height="120" as="geometry" />
        </mxCell>
        <mxCell id="pokAoe_vqRN141_JP_Yj-14" value="&lt;font style=&quot;font-size: 20px&quot;&gt;feed 视频&lt;/font&gt;" style="text;html=1;strokeColor=none;fillColor=none;align=center;verticalAlign=middle;whiteSpace=wrap;rounded=0;dashed=1;fontSize=14;" vertex="1" parent="1">
          <mxGeometry x="170" y="160" width="100" height="30" as="geometry" />
        </mxCell>
        <mxCell id="pokAoe_vqRN141_JP_Yj-15" value="&lt;span style=&quot;font-size: 14px&quot;&gt;大小图策略：出大图还是小图，将结果写入正排&lt;/span&gt;" style="rounded=0;whiteSpace=wrap;html=1;" vertex="1" parent="1">
          <mxGeometry x="240" y="330" width="120" height="50" as="geometry" />
        </mxCell>
      </root>
    </mxGraphModel>
  </diagram>
</mxfile>
